<svg xmlns="http://www.w3.org/2000/svg" class="aa-icon-svg" width="24" height="24" viewBox="0 0 24 24" fill="none">
<path d="M8 17H16C16 15.8 17 14.9 17 12.5V10.5C17 7.9 15.2 5.7 12.8 5.2C12.8 5.1 12.8 5.1 12.8 5C12.8 4.3 12.2 3.8 11.5 3.8C10.8 3.8 10.2 4.3 10.2 5V5.2C7.8 5.7 6 7.9 6 10.5V12.5C6 14.9 7 15.8 8 17Z" stroke="currentColor" stroke-linecap="round" stroke-linejoin="round" stroke-width="1.9"/><path d="M10 18C10.4 19.2 11.8 19.9 13 19.5C13.7 19.3 14.3 18.7 14.5 18" stroke="var(--aa-icon-accent, #FFA048)" stroke-linecap="round" stroke-linejoin="round" stroke-width="1.9"/>
</svg>
