<svg xmlns="http://www.w3.org/2000/svg" class="aa-icon-svg" width="24" height="24" viewBox="0 0 24 24" fill="none">
<path d="M12 8.5A3.5 3.5 0 1 0 12 15.5A3.5 3.5 0 0 0 12 8.5Z" stroke="var(--aa-icon-accent, #FFA048)" stroke-linecap="round" stroke-linejoin="round" stroke-width="1.9"/><path d="M19 13.5V10.5L16.8 10C16.6 9.4 16.3 8.8 15.9 8.3L16.6 6.1L14 4.6L12.5 6.3C11.9 6.2 11.2 6.2 10.6 6.3L9.1 4.6L6.5 6.1L7.2 8.3C6.8 8.8 6.5 9.4 6.3 10L4 10.5V13.5L6.3 14C6.5 14.6 6.8 15.2 7.2 15.7L6.5 17.9L9.1 19.4L10.6 17.7C11.2 17.8 11.9 17.8 12.5 17.7L14 19.4L16.6 17.9L15.9 15.7C16.3 15.2 16.6 14.6 16.8 14L19 13.5Z" stroke="currentColor" stroke-linecap="round" stroke-linejoin="round" stroke-width="1.9"/>
</svg>
