<svg xmlns="http://www.w3.org/2000/svg" width="24" height="24" viewBox="0 0 24 24" fill="none">
  <path d="M10.23 3.18c.34-1.57 3.2-1.57 3.54 0l.19.88c.11.5.48.91.97 1.07.26.08.51.19.75.31.45.23.99.23 1.42-.02l.77-.45c1.38-.81 3.4 1.21 2.59 2.59l-.45.77c-.25.43-.25.97-.02 1.42.12.24.22.49.31.75.16.49.57.86 1.07.97l.88.19c1.57.34 1.57 3.2 0 3.54l-.88.19c-.5.11-.91.48-1.07.97-.08.26-.19.51-.31.75-.23.45-.23.99.02 1.42l.45.77c.81 1.38-1.21 3.4-2.59 2.59l-.77-.45c-.43-.25-.97-.25-1.42-.02-.24.12-.49.22-.75.31-.49.16-.86.57-.97 1.07l-.19.88c-.34 1.57-3.2 1.57-3.54 0l-.19-.88c-.11-.5-.48-.91-.97-1.07-.26-.08-.51-.19-.75-.31-.45-.23-.99-.23-1.42.02l-.77.45c-1.38.81-3.4-1.21-2.59-2.59l.45-.77c.25-.43.25-.97.02-1.42-.12-.24-.22-.49-.31-.75-.16-.49-.57-.86-1.07-.97l-.88-.19c-1.57-.34-1.57-3.2 0-3.54l.88-.19c.5-.11.91-.48 1.07-.97.08-.26.19-.51.31-.75.23-.45.23-.99-.02-1.42l-.45-.77c-.81-1.38 1.21-3.4 2.59-2.59l.77.45c.43.25.97.25 1.42.02.24-.12.49-.22.75-.31.49-.16.86-.57.97-1.07l.19-.88Z" stroke="#7B8190" stroke-width="1.9" stroke-linecap="round" stroke-linejoin="round"/>
  <circle cx="12" cy="12" r="3.2" stroke="#7B8190" stroke-width="1.9"/>
</svg>