<svg width="24" height="24" viewBox="0 0 24 24" fill="none" xmlns="http://www.w3.org/2000/svg">
  <rect x="3" y="5" width="18" height="14" rx="5" fill="#9CA3AF"/>
  <path d="M7.2 9.1h2.05c.12 0 .2.08.24.2.34 1.05.82 1.96 1.38 2.48.18.16.33.12.33-.14V9.43c0-.22.1-.33.33-.33h1.56c.2 0 .3.1.3.31v1.82c0 .24.12.31.31.13.5-.48.94-1.18 1.23-1.98.07-.19.18-.28.39-.28h1.93c.28 0 .38.14.27.4-.38.94-.95 1.79-1.7 2.55-.2.2-.2.32.02.52.78.7 1.42 1.49 1.9 2.38.14.27.04.44-.27.44h-2.15c-.18 0-.31-.08-.4-.23-.35-.61-.77-1.14-1.26-1.59-.18-.16-.29-.1-.29.13v1.35c0 .22-.1.33-.31.33h-.58c-1.92 0-3.67-1.72-5.25-5.16-.14-.3-.03-.45.29-.45Z" fill="white"/>
</svg>
