<svg xmlns="http://www.w3.org/2000/svg" width="24" height="24" viewBox="0 0 24 24" fill="none"><path d="M10 17.4C10 18.5 9 19.4 7.8 19.4C6.6 19.4 5.6 18.5 5.6 17.4C5.6 16.3 6.6 15.4 7.8 15.4C9 15.4 10 16.3 10 17.4Z" stroke="#6B7280" stroke-linecap="round" stroke-linejoin="round" stroke-width="2.35" fill="none"/><path d="M10 17.4V7L17.5 5.7V15.2" stroke="#6B7280" stroke-linecap="round" stroke-linejoin="round" stroke-width="2.35" fill="none"/><path d="M17.5 15.2C17.5 16.3 16.5 17.2 15.3 17.2C14.1 17.2 13.1 16.3 13.1 15.2C13.1 14.1 14.1 13.2 15.3 13.2C16.5 13.2 17.5 14.1 17.5 15.2Z" stroke="#6B7280" stroke-linecap="round" stroke-linejoin="round" stroke-width="2.35" fill="none"/></svg>