<svg xmlns="http://www.w3.org/2000/svg" class="aa-icon-svg" width="24" height="24" viewBox="0 0 24 24" fill="none">
<path d="M8 11C9.7 11 11 9.7 11 8C11 6.3 9.7 5 8 5C6.3 5 5 6.3 5 8C5 9.7 6.3 11 8 11Z" stroke="currentColor" stroke-linecap="round" stroke-linejoin="round" stroke-width="1.9"/><path d="M16 10C17.4 10 18.5 8.9 18.5 7.5C18.5 6.1 17.4 5 16 5" stroke="currentColor" stroke-linecap="round" stroke-linejoin="round" stroke-width="1.9"/><path d="M3.8 18.5C4.4 15.9 6.3 14.5 8.6 14.5C10.9 14.5 12.8 15.9 13.4 18.5" stroke="var(--aa-icon-accent, #FFA048)" stroke-linecap="round" stroke-linejoin="round" stroke-width="1.9"/><path d="M14.5 18C14.9 16.4 16 15.4 17.5 15" stroke="currentColor" stroke-linecap="round" stroke-linejoin="round" stroke-width="1.9"/>
</svg>
